<svg width="28" height="28" viewBox="0 0 28 28" fill="none" xmlns="http://www.w3.org/2000/svg">
<path fill-rule="evenodd" clip-rule="evenodd" d="M26.6875 22.9443H16.1367L24.2335 20.1608C24.3627 20.1164 24.4749 20.0328 24.5543 19.9216C24.6337 19.8104 24.6764 19.6772 24.6765 19.5406V8.83711H26.6875V22.9443ZM1.3125 8.83711H3.32352V19.5406C3.32357 19.6772 3.36629 19.8104 3.4457 19.9216C3.52511 20.0328 3.63726 20.1164 3.76649 20.1608L11.8633 22.9443H1.3125V8.83711ZM27.3438 7.52461H24.6766V4.39872C24.6767 4.29415 24.6517 4.19108 24.6039 4.09809C24.556 4.00511 24.4866 3.92492 24.4015 3.86419C24.3164 3.80346 24.2179 3.76395 24.1144 3.74896C24.011 3.73397 23.9054 3.74394 23.8065 3.77802L14 7.1495L4.19284 3.77802C4.094 3.74406 3.98849 3.73419 3.88508 3.74923C3.78166 3.76428 3.68333 3.8038 3.59828 3.86452C3.51322 3.92524 3.44389 4.00539 3.39606 4.0983C3.34824 4.19122 3.32329 4.29422 3.3233 4.39872V7.52461H0.65625C0.482202 7.52461 0.315282 7.59375 0.192211 7.71682C0.0691404 7.83989 0 8.00681 0 8.18086L0 23.6005C-7.4829e-09 23.6867 0.0169835 23.7721 0.0499802 23.8517C0.082977 23.9314 0.13134 24.0037 0.192308 24.0647C0.253275 24.1256 0.325652 24.174 0.405303 24.2069C0.484955 24.2399 0.57032 24.2568 0.656523 24.2568H27.3438C27.5178 24.2568 27.6847 24.1877 27.8078 24.0646C27.9309 23.9415 28 23.7746 28 23.6005V8.18086C28 8.00681 27.9309 7.83989 27.8078 7.71682C27.6847 7.59375 27.5178 7.52461 27.3438 7.52461ZM16.916 11.3205L21.531 9.73349C21.6143 9.7069 21.6914 9.66396 21.7578 9.60717C21.8242 9.55038 21.8787 9.4809 21.9179 9.40279C21.9571 9.32469 21.9803 9.23954 21.9862 9.15234C21.992 9.06515 21.9804 8.97766 21.952 8.89501C21.9236 8.81236 21.8789 8.73622 21.8207 8.67105C21.7625 8.60589 21.6918 8.55301 21.6129 8.51552C21.5339 8.47804 21.4483 8.4567 21.361 8.45276C21.2737 8.44882 21.1865 8.46235 21.1045 8.49257L16.4894 10.0792C16.4079 10.1072 16.3327 10.151 16.2681 10.208C16.2035 10.2651 16.1508 10.3343 16.1129 10.4118C16.0365 10.5682 16.0254 10.7485 16.082 10.9132C16.1385 11.0778 16.2582 11.2132 16.4146 11.2896C16.571 11.366 16.7513 11.3771 16.9159 11.3206L16.916 11.3205ZM16.916 15.1059L21.531 13.5189C21.6145 13.4925 21.6919 13.4497 21.7586 13.393C21.8253 13.3362 21.88 13.2667 21.9194 13.1885C21.9589 13.1103 21.9822 13.025 21.9882 12.9376C21.9941 12.8503 21.9825 12.7626 21.954 12.6797C21.9256 12.5969 21.8808 12.5206 21.8224 12.4554C21.764 12.3901 21.6931 12.3372 21.6139 12.2998C21.5348 12.2624 21.4489 12.2412 21.3614 12.2374C21.2739 12.2337 21.1865 12.2475 21.1045 12.2781L16.4894 13.8646C16.3425 13.915 16.2182 14.0159 16.1387 14.1494C16.0592 14.2828 16.0296 14.4402 16.0552 14.5934C16.0808 14.7466 16.1599 14.8858 16.2785 14.9862C16.397 15.0865 16.5474 15.1416 16.7027 15.1415C16.7753 15.1414 16.8473 15.1294 16.916 15.1059ZM21.1043 16.0636L16.4893 17.6501C16.3424 17.7005 16.2182 17.8014 16.1387 17.9349C16.0592 18.0683 16.0297 18.2256 16.0553 18.3788C16.0808 18.532 16.1599 18.6712 16.2785 18.7715C16.397 18.8719 16.5473 18.927 16.7026 18.9269C16.7752 18.9269 16.8472 18.9149 16.9159 18.8914L21.5309 17.3044C21.6144 17.278 21.6918 17.2352 21.7585 17.1784C21.8252 17.1217 21.8799 17.0522 21.9193 16.974C21.9588 16.8958 21.9821 16.8105 21.9881 16.7231C21.994 16.6357 21.9824 16.548 21.9539 16.4652C21.9255 16.3824 21.8807 16.3061 21.8223 16.2409C21.7639 16.1756 21.693 16.1227 21.6138 16.0853C21.5346 16.0478 21.4488 16.0266 21.3613 16.0229C21.2738 16.0192 21.1864 16.033 21.1043 16.0636ZM11.5106 17.6501L6.89555 16.0636C6.81347 16.0331 6.72611 16.0192 6.63861 16.023C6.55112 16.0267 6.46525 16.0479 6.38607 16.0853C6.30689 16.1228 6.23601 16.1757 6.1776 16.2409C6.11918 16.3062 6.07442 16.3825 6.04595 16.4653C6.01748 16.5481 6.00587 16.6358 6.01181 16.7232C6.01776 16.8105 6.04113 16.8958 6.08055 16.974C6.11998 17.0522 6.17465 17.1218 6.24137 17.1785C6.30808 17.2352 6.38547 17.2781 6.46898 17.3044L11.0843 18.8915C11.2489 18.948 11.4293 18.9369 11.5857 18.8605C11.7421 18.7841 11.8617 18.6487 11.9183 18.484C11.9748 18.3194 11.9637 18.1391 11.8873 17.9827C11.8109 17.8263 11.6755 17.7066 11.5108 17.6501L11.5106 17.6501ZM11.5106 13.8646L6.89555 12.2782C6.81347 12.2476 6.72611 12.2338 6.63861 12.2375C6.55112 12.2412 6.46525 12.2624 6.38607 12.2999C6.30689 12.3373 6.23601 12.3902 6.1776 12.4554C6.11918 12.5207 6.07442 12.597 6.04595 12.6798C6.01748 12.7626 6.00587 12.8503 6.01181 12.9377C6.01776 13.0251 6.04113 13.1104 6.08055 13.1886C6.11998 13.2668 6.17465 13.3363 6.24137 13.393C6.30808 13.4498 6.38547 13.4926 6.46898 13.519L11.0843 15.106C11.2489 15.1626 11.4293 15.1514 11.5857 15.075C11.7421 14.9986 11.8617 14.8632 11.9183 14.6986C11.9748 14.5339 11.9637 14.3536 11.8873 14.1972C11.8109 14.0408 11.6755 13.9211 11.5108 13.8646L11.5106 13.8646ZM11.9179 10.9132C11.946 10.8317 11.9578 10.7454 11.9525 10.6594C11.9473 10.5733 11.9251 10.4891 11.8873 10.4117C11.8494 10.3342 11.7967 10.265 11.7321 10.2079C11.6674 10.1509 11.5922 10.1071 11.5106 10.0792L6.89555 8.49257C6.81354 8.46235 6.72633 8.44882 6.63903 8.45276C6.55172 8.4567 6.46608 8.47804 6.38713 8.51552C6.30819 8.55301 6.23752 8.60589 6.17929 8.67105C6.12105 8.73622 6.07642 8.81236 6.04801 8.89501C6.0196 8.97766 6.00799 9.06515 6.01385 9.15234C6.01971 9.23954 6.04292 9.32469 6.08214 9.40279C6.12135 9.4809 6.17577 9.55038 6.2422 9.60717C6.30863 9.66396 6.38573 9.7069 6.46898 9.73349L11.0843 11.3205C11.2489 11.377 11.4292 11.3658 11.5855 11.2894C11.7419 11.213 11.8615 11.0777 11.918 10.9131L11.9179 10.9132Z" fill="url(#paint0_linear_3841_68278)"/>
<defs>
<linearGradient id="paint0_linear_3841_68278" x1="28" y1="24.2568" x2="-3.22787" y2="11.8988" gradientUnits="userSpaceOnUse">
<stop stop-color="#0D55B7"/>
<stop offset="1" stop-color="#6D93FF"/>
</linearGradient>
</defs>
</svg>
