<svg width="28" height="28" viewBox="0 0 28 28" fill="none" xmlns="http://www.w3.org/2000/svg">
<path d="M1.7908 13.8103C1.35633 13.808 1.00227 14.1584 1 14.5928V25.0103H7.73333V13.8103H1.7908ZM3.53333 22.077C3.53333 22.2184 3.47714 22.3541 3.37712 22.4541C3.2771 22.5541 3.14145 22.6103 3 22.6103C2.85855 22.6103 2.7229 22.5541 2.62288 22.4541C2.52286 22.3541 2.46667 22.2184 2.46667 22.077V20.9309C2.46667 20.7894 2.52286 20.6538 2.62288 20.5538C2.7229 20.4537 2.85855 20.3976 3 20.3976C3.14145 20.3976 3.2771 20.4537 3.37712 20.5538C3.47714 20.6538 3.53333 20.7894 3.53333 20.9309V22.077ZM3.53333 17.6131C3.53333 17.7545 3.47714 17.8902 3.37712 17.9902C3.2771 18.0902 3.14145 18.1464 3 18.1464C2.85855 18.1464 2.7229 18.0902 2.62288 17.9902C2.52286 17.8902 2.46667 17.7545 2.46667 17.6131V16.467C2.46667 16.3255 2.52286 16.1898 2.62288 16.0898C2.7229 15.9898 2.85855 15.9336 3 15.9336C3.14145 15.9336 3.2771 15.9898 3.37712 16.0898C3.47714 16.1898 3.53333 16.3255 3.53333 16.467V17.6131ZM6.26667 22.077C6.26667 22.2184 6.21048 22.3541 6.11046 22.4541C6.01044 22.5541 5.87478 22.6103 5.73333 22.6103C5.59188 22.6103 5.45623 22.5541 5.35621 22.4541C5.25619 22.3541 5.2 22.2184 5.2 22.077V20.9309C5.2 20.7894 5.25619 20.6538 5.35621 20.5538C5.45623 20.4537 5.59188 20.3976 5.73333 20.3976C5.87478 20.3976 6.01044 20.4537 6.11046 20.5538C6.21048 20.6538 6.26667 20.7894 6.26667 20.9309V22.077ZM6.26667 17.6131C6.26667 17.7545 6.21048 17.8902 6.11046 17.9902C6.01044 18.0902 5.87478 18.1464 5.73333 18.1464C5.59188 18.1464 5.45623 18.0902 5.35621 17.9902C5.25619 17.8902 5.2 17.7545 5.2 17.6131V16.467C5.2 16.3255 5.25619 16.1898 5.35621 16.0898C5.45623 15.9898 5.59188 15.9336 5.73333 15.9336C5.87478 15.9336 6.01044 15.9898 6.11046 16.0898C6.21048 16.1898 6.26667 16.3255 6.26667 16.467V17.6131ZM13.9143 6.37695L8.8 10.7272V25.0103H11.1333V19.4562C11.1316 19.3883 11.1437 19.3208 11.169 19.2577C11.1942 19.1946 11.232 19.1373 11.2801 19.0894C11.3282 19.0414 11.3856 19.0037 11.4488 18.9787C11.5119 18.9536 11.5795 18.9417 11.6474 18.9436H16.2319C16.2992 18.9419 16.3661 18.9541 16.4284 18.9794C16.4908 19.0047 16.5472 19.0426 16.5943 19.0907C16.6413 19.1388 16.678 19.1961 16.7019 19.259C16.7258 19.3219 16.7365 19.389 16.7333 19.4562V25.0103H19V10.7223L13.9143 6.37695ZM16.2319 15.9436H11.6173C11.4758 15.9436 11.3402 15.8874 11.2401 15.7874C11.1401 15.6874 11.0839 15.5517 11.0839 15.4103C11.0839 15.2688 11.1401 15.1332 11.2401 15.0332C11.3402 14.9331 11.4758 14.877 11.6173 14.877H16.2319C16.3734 14.877 16.509 14.9331 16.6091 15.0332C16.7091 15.1332 16.7653 15.2688 16.7653 15.4103C16.7653 15.5517 16.7091 15.6874 16.6091 15.7874C16.509 15.8874 16.3734 15.9436 16.2319 15.9436ZM26.2196 13.8103H20.0667V25.0103H27V14.6032C27.0035 14.1687 26.654 13.8138 26.2196 13.8103ZM22.8 22.077C22.8 22.2184 22.7438 22.3541 22.6438 22.4541C22.5438 22.5541 22.4081 22.6103 22.2667 22.6103C22.1252 22.6103 21.9896 22.5541 21.8895 22.4541C21.7895 22.3541 21.7333 22.2184 21.7333 22.077V20.9309C21.7333 20.7894 21.7895 20.6538 21.8895 20.5538C21.9896 20.4537 22.1252 20.3976 22.2667 20.3976C22.4081 20.3976 22.5438 20.4537 22.6438 20.5538C22.7438 20.6538 22.8 20.7894 22.8 20.9309V22.077ZM22.8 17.6131C22.8 17.7545 22.7438 17.8902 22.6438 17.9902C22.5438 18.0902 22.4081 18.1464 22.2667 18.1464C22.1252 18.1464 21.9896 18.0902 21.8895 17.9902C21.7895 17.8902 21.7333 17.7545 21.7333 17.6131V16.467C21.7333 16.3255 21.7895 16.1898 21.8895 16.0898C21.9896 15.9898 22.1252 15.9336 22.2667 15.9336C22.4081 15.9336 22.5438 15.9898 22.6438 16.0898C22.7438 16.1898 22.8 16.3255 22.8 16.467V17.6131ZM25.4667 22.077C25.4667 22.2184 25.4105 22.3541 25.3105 22.4541C25.2104 22.5541 25.0748 22.6103 24.9333 22.6103C24.7919 22.6103 24.6562 22.5541 24.5562 22.4541C24.4562 22.3541 24.4 22.2184 24.4 22.077V20.9309C24.4 20.7894 24.4562 20.6538 24.5562 20.5538C24.6562 20.4537 24.7919 20.3976 24.9333 20.3976C25.0748 20.3976 25.2104 20.4537 25.3105 20.5538C25.4105 20.6538 25.4667 20.7894 25.4667 20.9309V22.077ZM25.4667 17.6131C25.4667 17.7545 25.4105 17.8902 25.3105 17.9902C25.2104 18.0902 25.0748 18.1464 24.9333 18.1464C24.7919 18.1464 24.6562 18.0902 24.5562 17.9902C24.4562 17.8902 24.4 17.7545 24.4 17.6131V16.467C24.4 16.3255 24.4562 16.1898 24.5562 16.0898C24.6562 15.9898 24.7919 15.9336 24.9333 15.9336C25.0748 15.9336 25.2104 15.9898 25.3105 16.0898C25.4105 16.1898 25.4667 16.3255 25.4667 16.467V17.6131Z" fill="#FF981F"/>
<path d="M13.9408 3L6.30859 9.534L7.27313 10.6563L13.5945 5.27C13.6912 5.18763 13.814 5.14245 13.941 5.14259C14.068 5.14272 14.1908 5.18816 14.2873 5.27073L20.5824 10.6585L21.5691 9.53093L13.9408 3ZM12.2008 20.0109H15.6675V25.0109H12.2008V20.0109Z" fill="#FF981F"/>
</svg>
