<svg width="28" height="28" viewBox="0 0 28 28" fill="none" xmlns="http://www.w3.org/2000/svg">
<path d="M14.0004 0C7.48671 0 2.21094 0.736866 2.21094 5.89472V20.6315C2.21094 21.9358 2.78567 23.0926 3.6846 23.9031V26.5263C3.6846 27.3368 4.34776 28 5.15826 28H6.63199C7.44989 28 8.10566 27.3368 8.10566 26.5263V25.0527H19.8952V26.5263C19.8952 27.3368 20.5509 28 21.3688 28H22.8425C23.653 28 24.3161 27.3368 24.3161 26.5263V23.9032C25.2151 23.0927 25.7898 21.9358 25.7898 20.6316V5.89472C25.7899 0.736866 20.5141 0 14.0004 0ZM7.36886 22.1053C6.14568 22.1053 5.15833 21.1179 5.15833 19.8948C5.15833 18.6716 6.14568 17.6842 7.36886 17.6842C8.59204 17.6842 9.57939 18.6716 9.57939 19.8948C9.57939 21.1179 8.59197 22.1053 7.36886 22.1053ZM20.632 22.1053C19.4088 22.1053 18.4215 21.1179 18.4215 19.8948C18.4215 18.6716 19.4088 17.6842 20.632 17.6842C21.8552 17.6842 22.8426 18.6716 22.8426 19.8948C22.8426 21.1179 21.8551 22.1053 20.632 22.1053ZM22.8426 13.2632H5.15833V5.89472H22.8426V13.2632Z" fill="url(#paint0_linear_3841_68315)"/>
<defs>
<linearGradient id="paint0_linear_3841_68315" x1="3.45193" y1="-5.33854e-07" x2="28.5925" y2="22.1149" gradientUnits="userSpaceOnUse">
<stop stop-color="#2BBBAF"/>
<stop offset="1" stop-color="#1A998E"/>
</linearGradient>
</defs>
</svg>
