<svg width="28" height="28" viewBox="0 0 28 28" fill="none" xmlns="http://www.w3.org/2000/svg">
<path d="M25.535 9.23118L23.5925 7.28868C23.5885 7.28455 23.5838 7.28127 23.5785 7.27902C23.5733 7.27678 23.5676 7.27562 23.5619 7.27562C23.5562 7.27562 23.5505 7.27678 23.5452 7.27902C23.54 7.28127 23.5352 7.28455 23.5313 7.28868C23.2221 7.57422 22.8144 7.72912 22.3937 7.72096C21.9729 7.7128 21.5716 7.54222 21.2737 7.24491C20.9758 6.9476 20.8045 6.5466 20.7955 6.12584C20.7865 5.70507 20.9407 5.29715 21.2256 4.98743C21.2298 4.98347 21.233 4.97871 21.2353 4.97345C21.2375 4.96819 21.2387 4.96253 21.2387 4.9568C21.2387 4.95108 21.2375 4.94542 21.2353 4.94016C21.233 4.93489 21.2298 4.93014 21.2256 4.92618L19.2831 2.98368C19.198 2.89683 19.0966 2.82768 18.9846 2.7802C18.8727 2.73273 18.7525 2.70787 18.6309 2.70705C18.5093 2.70624 18.3887 2.72949 18.2762 2.77546C18.1636 2.82144 18.0613 2.88923 17.975 2.97493L14.4969 6.45305C14.5032 6.51679 14.4954 6.58113 14.4743 6.64158C14.4531 6.70204 14.419 6.75714 14.3744 6.80305C14.3338 6.84396 14.2853 6.87627 14.232 6.89807C14.1786 6.91987 14.1214 6.9307 14.0638 6.92993C14.0506 6.92993 14.0375 6.92555 14.0244 6.92555L7.23438 13.7156H20.7575C20.7339 13.623 20.7413 13.5253 20.7787 13.4373C20.816 13.3494 20.8812 13.2762 20.9642 13.229C21.0473 13.1818 21.1435 13.1631 21.2382 13.1759C21.3328 13.1888 21.4206 13.2323 21.4881 13.2999L21.7988 13.6106C21.8298 13.6417 21.8563 13.6771 21.8775 13.7156H22.3719L25.5438 10.5437C25.7159 10.3681 25.8116 10.1315 25.81 9.88562C25.8084 9.63972 25.7095 9.40445 25.535 9.23118ZM15.6125 8.04118C15.5719 8.08208 15.5235 8.1144 15.4701 8.1362C15.4167 8.15799 15.3595 8.16883 15.3019 8.16805C15.2443 8.16844 15.1872 8.15742 15.1339 8.13565C15.0806 8.11387 15.0321 8.08177 14.9913 8.04118L14.685 7.73055C14.6032 7.64875 14.5572 7.5378 14.5572 7.42212C14.5572 7.30643 14.6032 7.19548 14.685 7.11368C14.7668 7.03188 14.8778 6.98592 14.9934 6.98592C15.1091 6.98592 15.2201 7.03188 15.3019 7.11368L15.6125 7.4243C15.6531 7.46478 15.6852 7.51285 15.7072 7.56578C15.7291 7.61871 15.7404 7.67544 15.7404 7.73274C15.7404 7.79004 15.7291 7.84678 15.7072 7.8997C15.6852 7.95263 15.6531 8.0007 15.6125 8.04118ZM16.8506 9.2793C16.7677 9.36064 16.6562 9.4062 16.54 9.4062C16.4238 9.4062 16.3123 9.36064 16.2294 9.2793L15.9231 8.96868C15.8816 8.92875 15.8486 8.88086 15.826 8.82786C15.8034 8.77486 15.7918 8.71785 15.7918 8.66024C15.7918 8.60264 15.8034 8.54563 15.826 8.49263C15.8486 8.43963 15.8816 8.39173 15.9231 8.3518C15.9636 8.31125 16.0117 8.27907 16.0646 8.25711C16.1175 8.23516 16.1743 8.22386 16.2316 8.22386C16.2889 8.22386 16.3456 8.23516 16.3985 8.25711C16.4514 8.27907 16.4995 8.31125 16.54 8.3518L16.8506 8.65805C16.9326 8.74066 16.9786 8.85231 16.9786 8.96868C16.9786 9.08505 16.9326 9.1967 16.8506 9.2793ZM18.0887 10.5174C18.0051 10.5977 17.894 10.643 17.7781 10.6443C17.6621 10.6438 17.5507 10.5984 17.4675 10.5174L17.1569 10.2068C17.1163 10.1663 17.0841 10.1183 17.0622 10.0653C17.0402 10.0124 17.0289 9.95567 17.0289 9.89837C17.0289 9.84107 17.0402 9.78433 17.0622 9.73141C17.0841 9.67848 17.1163 9.6304 17.1569 9.58993C17.2395 9.50796 17.3511 9.46197 17.4675 9.46197C17.5839 9.46197 17.6955 9.50796 17.7781 9.58993L18.0887 9.89618C18.1707 9.97878 18.2167 10.0904 18.2167 10.2068C18.2167 10.3232 18.1707 10.4348 18.0887 10.5174ZM19.3225 11.7556C19.241 11.8363 19.131 11.8819 19.0163 11.8824C18.9002 11.882 18.7888 11.8365 18.7056 11.7556L18.395 11.4449C18.3542 11.4041 18.3219 11.3557 18.2998 11.3024C18.2777 11.2491 18.2663 11.192 18.2663 11.1343C18.2663 11.0766 18.2777 11.0195 18.2998 10.9662C18.3219 10.9129 18.3542 10.8645 18.395 10.8237C18.4358 10.7829 18.4842 10.7505 18.5375 10.7285C18.5908 10.7064 18.6479 10.695 18.7056 10.695C18.7633 10.695 18.8204 10.7064 18.8737 10.7285C18.927 10.7505 18.9755 10.7829 19.0163 10.8237L19.3225 11.1343C19.4045 11.2169 19.4505 11.3286 19.4505 11.4449C19.4505 11.5613 19.4045 11.673 19.3225 11.7556ZM20.5606 12.9893C20.5207 13.0308 20.4728 13.0639 20.4198 13.0864C20.3668 13.109 20.3098 13.1206 20.2522 13.1206C20.1946 13.1206 20.1376 13.109 20.0846 13.0864C20.0316 13.0639 19.9837 13.0308 19.9438 12.9893L19.6331 12.6831C19.5512 12.6005 19.5052 12.4888 19.5052 12.3724C19.5052 12.2561 19.5512 12.1444 19.6331 12.0618C19.6736 12.0212 19.7217 11.9891 19.7746 11.9671C19.8275 11.9452 19.8843 11.9339 19.9416 11.9339C19.9989 11.9339 20.0556 11.9452 20.1085 11.9671C20.1614 11.9891 20.2095 12.0212 20.25 12.0618L20.5606 12.3724C20.6012 12.4129 20.6334 12.461 20.6553 12.5139C20.6773 12.5668 20.6886 12.6236 20.6886 12.6809C20.6886 12.7382 20.6773 12.7949 20.6553 12.8478C20.6334 12.9008 20.6012 12.9488 20.5606 12.9893ZM11.3626 21.3162C11.2374 21.3162 11.115 21.3534 11.0109 21.4229C10.9068 21.4925 10.8257 21.5914 10.7778 21.707C10.7298 21.8227 10.7173 21.95 10.7417 22.0728C10.7662 22.1956 10.8264 22.3084 10.915 22.3969C11.0035 22.4855 11.1163 22.5458 11.2391 22.5702C11.3619 22.5946 11.4892 22.5821 11.6049 22.5342C11.7206 22.4863 11.8194 22.4051 11.889 22.301C11.9586 22.1969 11.9957 22.0745 11.9957 21.9493C11.9955 21.7815 11.9287 21.6206 11.81 21.5019C11.6913 21.3832 11.5305 21.3165 11.3626 21.3162Z" fill="url(#paint0_linear_3841_68295)"/>
<path d="M24.3731 18.3139C24.3789 18.3139 24.3846 18.3128 24.3899 18.3106C24.3952 18.3084 24.4 18.3052 24.4041 18.3011C24.4081 18.2971 24.4114 18.2922 24.4136 18.2869C24.4158 18.2816 24.4169 18.2759 24.4169 18.2702V15.5227C24.4179 15.2767 24.3213 15.0404 24.1482 14.8657C23.9751 14.691 23.7397 14.5921 23.4938 14.5908H18.6786V14.7387C18.6786 14.8547 18.6326 14.966 18.5505 15.0481C18.4685 15.1301 18.3572 15.1762 18.2411 15.1762C18.1251 15.1762 18.0138 15.1301 17.9318 15.0481C17.8497 14.966 17.8036 14.8547 17.8036 14.7387V14.5908H3.11065C2.98876 14.5911 2.86814 14.6155 2.7557 14.6625C2.64326 14.7095 2.54122 14.7783 2.45544 14.8649C2.36966 14.9515 2.30184 15.0542 2.25586 15.1671C2.20988 15.28 2.18666 15.4008 2.18752 15.5227V18.2702C2.18752 18.2759 2.18865 18.2816 2.19085 18.2869C2.19305 18.2922 2.19627 18.2971 2.20034 18.3011C2.2044 18.3052 2.20922 18.3084 2.21453 18.3106C2.21984 18.3128 2.22553 18.3139 2.23127 18.3139C2.6516 18.3308 3.0491 18.5097 3.34053 18.8131C3.63196 19.1164 3.79471 19.5208 3.79471 19.9414C3.79471 20.3621 3.63196 20.7665 3.34053 21.0698C3.0491 21.3732 2.6516 21.5521 2.23127 21.5689C2.21994 21.5698 2.20928 21.5746 2.20124 21.5827C2.19321 21.5907 2.18834 21.6014 2.18752 21.6127V24.3646C2.18712 24.4861 2.21069 24.6066 2.25689 24.719C2.30308 24.8314 2.37099 24.9336 2.45674 25.0198C2.54248 25.1059 2.64437 25.1743 2.75658 25.221C2.86878 25.2678 2.9891 25.2919 3.11065 25.2921H17.815C17.81 25.2744 17.8062 25.2564 17.8036 25.2383V24.8008C17.8036 24.6847 17.8497 24.5734 17.9318 24.4914C18.0138 24.4094 18.1251 24.3633 18.2411 24.3633C18.3572 24.3633 18.4685 24.4094 18.5505 24.4914C18.6326 24.5734 18.6786 24.6847 18.6786 24.8008V25.2383C18.6764 25.2564 18.6728 25.2744 18.6681 25.2921H23.4938C23.739 25.291 23.9739 25.1928 24.1469 25.019C24.3199 24.8452 24.417 24.6098 24.4169 24.3646V21.6127C24.4161 21.6014 24.4112 21.5907 24.4032 21.5827C24.3951 21.5746 24.3845 21.5698 24.3731 21.5689C23.9507 21.5551 23.5503 21.3776 23.2564 21.0739C22.9625 20.7701 22.7981 20.3641 22.7981 19.9414C22.7981 19.5188 22.9625 19.1127 23.2564 18.809C23.5503 18.5053 23.9507 18.3278 24.3731 18.3139ZM7.88552 16.427C8.18379 16.427 8.47536 16.5155 8.72336 16.6812C8.97136 16.8469 9.16465 17.0824 9.27879 17.358C9.39293 17.6335 9.4228 17.9367 9.36461 18.2293C9.30642 18.5218 9.16279 18.7905 8.95189 19.0014C8.74098 19.2123 8.47227 19.356 8.17973 19.4142C7.8872 19.4723 7.58398 19.4425 7.30841 19.3283C7.03285 19.2142 6.79732 19.0209 6.63162 18.7729C6.46591 18.5249 6.37746 18.2333 6.37746 17.9351C6.37792 17.5352 6.53696 17.1519 6.81967 16.8692C7.10239 16.5865 7.4857 16.4275 7.88552 16.427ZM6.81452 23.4576C6.72973 23.4576 6.64678 23.4329 6.57576 23.3865C6.50475 23.3402 6.44873 23.2742 6.41452 23.1966C6.38031 23.119 6.36939 23.0332 6.38309 22.9495C6.39678 22.8658 6.4345 22.7879 6.49165 22.7253L12.1122 16.5696C12.1506 16.526 12.1973 16.4904 12.2496 16.465C12.3019 16.4396 12.3587 16.4249 12.4168 16.4217C12.4748 16.4185 12.5329 16.4269 12.5877 16.4464C12.6424 16.466 12.6927 16.4962 12.7357 16.5354C12.7786 16.5746 12.8133 16.6219 12.8378 16.6747C12.8622 16.7274 12.8759 16.7845 12.878 16.8426C12.8801 16.9007 12.8706 16.9586 12.8501 17.013C12.8295 17.0674 12.7984 17.1172 12.7584 17.1594L7.13784 23.3146C7.09691 23.3596 7.04699 23.3956 6.9913 23.4202C6.93561 23.4447 6.87539 23.4578 6.81452 23.4576ZM11.3645 23.4576C11.0663 23.4576 10.7747 23.3692 10.5267 23.2035C10.2787 23.0378 10.0854 22.8022 9.97126 22.5267C9.85711 22.2511 9.82725 21.9479 9.88544 21.6554C9.94363 21.3628 10.0873 21.0941 10.2982 20.8832C10.5091 20.6723 10.7778 20.5287 11.0703 20.4705C11.3629 20.4123 11.6661 20.4422 11.9416 20.5563C12.2172 20.6704 12.4527 20.8637 12.6184 21.1117C12.7841 21.3597 12.8726 21.6513 12.8726 21.9496C12.8721 22.3494 12.7131 22.7327 12.4304 23.0154C12.1477 23.2981 11.7643 23.4572 11.3645 23.4576ZM18.6786 23.4883C18.6786 23.6043 18.6326 23.7156 18.5505 23.7976C18.4685 23.8797 18.3572 23.9258 18.2411 23.9258C18.1251 23.9258 18.0138 23.8797 17.9318 23.7976C17.8497 23.7156 17.8036 23.6043 17.8036 23.4883V23.0508C17.8036 22.9347 17.8497 22.8234 17.9318 22.7414C18.0138 22.6594 18.1251 22.6133 18.2411 22.6133C18.3572 22.6133 18.4685 22.6594 18.5505 22.7414C18.6326 22.8234 18.6786 22.9347 18.6786 23.0508V23.4883ZM18.6786 21.7383C18.6786 21.8543 18.6326 21.9656 18.5505 22.0476C18.4685 22.1297 18.3572 22.1758 18.2411 22.1758C18.1251 22.1758 18.0138 22.1297 17.9318 22.0476C17.8497 21.9656 17.8036 21.8543 17.8036 21.7383V21.3008C17.8036 21.1847 17.8497 21.0734 17.9318 20.9914C18.0138 20.9094 18.1251 20.8633 18.2411 20.8633C18.3572 20.8633 18.4685 20.9094 18.5505 20.9914C18.6326 21.0734 18.6786 21.1847 18.6786 21.3008V21.7383ZM18.6786 19.9883C18.6786 20.1043 18.6326 20.2156 18.5505 20.2976C18.4685 20.3797 18.3572 20.4258 18.2411 20.4258C18.1251 20.4258 18.0138 20.3797 17.9318 20.2976C17.8497 20.2156 17.8036 20.1043 17.8036 19.9883V19.5508C17.8036 19.4347 17.8497 19.3234 17.9318 19.2414C18.0138 19.1594 18.1251 19.1133 18.2411 19.1133C18.3572 19.1133 18.4685 19.1594 18.5505 19.2414C18.6326 19.3234 18.6786 19.4347 18.6786 19.5508V19.9883ZM18.6786 18.2383C18.6786 18.3543 18.6326 18.4656 18.5505 18.5476C18.4685 18.6297 18.3572 18.6758 18.2411 18.6758C18.1251 18.6758 18.0138 18.6297 17.9318 18.5476C17.8497 18.4656 17.8036 18.3543 17.8036 18.2383V17.8008C17.8036 17.6847 17.8497 17.5734 17.9318 17.4914C18.0138 17.4094 18.1251 17.3633 18.2411 17.3633C18.3572 17.3633 18.4685 17.4094 18.5505 17.4914C18.6326 17.5734 18.6786 17.6847 18.6786 17.8008V18.2383ZM18.6786 16.4883C18.6786 16.6043 18.6326 16.7156 18.5505 16.7976C18.4685 16.8797 18.3572 16.9258 18.2411 16.9258C18.1251 16.9258 18.0138 16.8797 17.9318 16.7976C17.8497 16.7156 17.8036 16.6043 17.8036 16.4883V16.0508C17.8036 15.9347 17.8497 15.8234 17.9318 15.7414C18.0138 15.6594 18.1251 15.6133 18.2411 15.6133C18.3572 15.6133 18.4685 15.6594 18.5505 15.7414C18.6326 15.8234 18.6786 15.9347 18.6786 16.0508V16.4883Z" fill="url(#paint1_linear_3841_68295)"/>
<path d="M7.88697 18.5669C8.0122 18.5669 8.13461 18.5298 8.23873 18.4602C8.34284 18.3906 8.42398 18.2917 8.47188 18.176C8.51979 18.0603 8.5323 17.933 8.50784 17.8102C8.48337 17.6874 8.42304 17.5746 8.33446 17.486C8.24588 17.3975 8.13304 17.3373 8.01021 17.3129C7.88737 17.2885 7.76007 17.3011 7.6444 17.3491C7.52873 17.3971 7.42989 17.4783 7.36038 17.5825C7.29087 17.6866 7.25382 17.8091 7.25391 17.9343C7.25414 18.1021 7.32092 18.2629 7.43961 18.3815C7.55829 18.5001 7.71918 18.5668 7.88697 18.5669Z" fill="url(#paint2_linear_3841_68295)"/>
<defs>
<linearGradient id="paint0_linear_3841_68295" x1="25.81" y1="22.5824" x2="3.48768" y2="16.5334" gradientUnits="userSpaceOnUse">
<stop stop-color="#9610FF"/>
<stop offset="1" stop-color="#B658FF"/>
</linearGradient>
<linearGradient id="paint1_linear_3841_68295" x1="24.4169" y1="25.2921" x2="3.37515" y2="12.6189" gradientUnits="userSpaceOnUse">
<stop stop-color="#9610FF"/>
<stop offset="1" stop-color="#B658FF"/>
</linearGradient>
<linearGradient id="paint2_linear_3841_68295" x1="8.52003" y1="18.5669" x2="7.01346" y2="18.1301" gradientUnits="userSpaceOnUse">
<stop stop-color="#9610FF"/>
<stop offset="1" stop-color="#B658FF"/>
</linearGradient>
</defs>
</svg>
