<svg width="24" height="24" viewBox="0 0 24 24" fill="none" xmlns="http://www.w3.org/2000/svg">
<path fill-rule="evenodd" clip-rule="evenodd" d="M11.75 21.4664L8.449 12.9782C8.33689 12.6899 8.05931 12.5 7.75 12.5H5.75C4.23122 12.5 3 13.7312 3 15.25V22.25C3 22.6642 3.33579 23 3.75 23H19.75C20.1642 23 20.5 22.6642 20.5 22.25V15.25C20.5 13.7312 19.2688 12.5 17.75 12.5H15.75C15.4407 12.5 15.1631 12.6899 15.051 12.9782L11.75 21.4664Z" fill="#4AAF57"/>
<path fill-rule="evenodd" clip-rule="evenodd" d="M10.112 12.8557C10.2487 12.6345 10.4901 12.5 10.75 12.5H12.75C13.0099 12.5 13.2513 12.6345 13.388 12.8557C13.5246 13.0768 13.5371 13.3529 13.4208 13.5854L12.5224 15.3823L12.9942 19.1569C13.0081 19.2681 12.9969 19.3809 12.9615 19.4871L12.4615 20.9871C12.3594 21.2934 12.0728 21.5 11.75 21.5C11.4272 21.5 11.1406 21.2934 11.0385 20.9871L10.5385 19.4871C10.5031 19.3809 10.4919 19.2681 10.5058 19.1569L10.9776 15.3823L10.0792 13.5854C9.96293 13.3529 9.97536 13.0768 10.112 12.8557Z" fill="#4AAF57"/>
<path fill-rule="evenodd" clip-rule="evenodd" d="M7.5 5.75C7.5 3.40279 9.40279 1.5 11.75 1.5C14.0972 1.5 16 3.40279 16 5.75V6.75C16 9.09721 14.0972 11 11.75 11C9.40279 11 7.5 9.09721 7.5 6.75V5.75Z" fill="#4AAF57"/>
</svg>
