<svg width="44" height="44" viewBox="0 0 44 44" fill="none" xmlns="http://www.w3.org/2000/svg">
<path fill-rule="evenodd" clip-rule="evenodd" d="M21.9981 20.1388C23.0366 20.1388 24.0518 20.4468 24.9152 21.0237C25.7787 21.6007 26.4517 22.4207 26.8491 23.3802C27.2466 24.3397 27.3506 25.3954 27.1479 26.414C26.9453 27.4325 26.4453 28.3681 25.7109 29.1024C24.9766 29.8368 24.041 30.3369 23.0224 30.5395C22.0039 30.7421 20.9481 30.6381 19.9887 30.2407C19.0292 29.8433 18.2092 29.1702 17.6322 28.3068C17.0552 27.4433 16.7473 26.4281 16.7473 25.3896C16.7473 23.997 17.3005 22.6614 18.2852 21.6767C19.2699 20.692 20.6055 20.1388 21.9981 20.1388ZM21.821 11.0334C21.989 11.0927 22.1726 11.0896 22.3385 11.0248V11.0254C26.0983 9.61796 29.8609 8.21741 33.6264 6.82373C33.65 6.81488 33.6753 6.81158 33.7004 6.81409C33.7255 6.8166 33.7496 6.82485 33.771 6.83819C33.7923 6.85154 33.8104 6.86963 33.8236 6.89105C33.8369 6.91248 33.845 6.93667 33.8474 6.96175L34.0794 9.32073C34.0832 9.35555 34.0756 9.39067 34.0578 9.42083C34.04 9.45098 34.0129 9.47457 33.9806 9.48805C33.7672 9.5796 33.5858 9.73253 33.4596 9.92741C33.3333 10.1223 33.2679 10.3503 33.2715 10.5825L33.3113 13.0129C33.3118 13.0442 33.3184 13.0751 33.3308 13.1038C33.3432 13.1326 33.3612 13.1586 33.3837 13.1804C33.4061 13.2022 33.4327 13.2193 33.4618 13.2309C33.4909 13.2424 33.522 13.2481 33.5533 13.2476L35.4163 13.2171C35.4795 13.2162 35.5397 13.1902 35.5837 13.1448C35.6278 13.0994 35.652 13.0384 35.651 12.9752L35.6112 10.5448C35.6067 10.2799 35.5124 10.0243 35.3438 9.81981C35.1753 9.61534 34.9424 9.47406 34.6831 9.41905C34.6488 9.41216 34.6175 9.39433 34.5941 9.36823C34.5707 9.34213 34.5564 9.30916 34.5533 9.27424L34.3 6.7042C34.2961 6.66801 34.3045 6.63157 34.3238 6.60071C34.3431 6.56984 34.3722 6.54634 34.4064 6.53395C35.0258 6.30404 35.6447 6.07399 36.2631 5.84379C36.2764 5.83867 36.2878 5.82959 36.2957 5.81778C36.3037 5.80598 36.3078 5.79201 36.3076 5.77777C36.3074 5.76353 36.3028 5.74971 36.2944 5.73817C36.2861 5.72663 36.2744 5.71793 36.2609 5.71325L22.1753 0.990125C22.0073 0.930809 21.8236 0.93386 21.6577 0.998718L7.73424 6.17998C7.72065 6.18468 7.70887 6.19354 7.70057 6.20529C7.69227 6.21704 7.68787 6.2311 7.68798 6.24549C7.6881 6.25987 7.69272 6.27386 7.70121 6.28548C7.70969 6.2971 7.7216 6.30577 7.73527 6.31026L21.821 11.0334ZM31.3839 13.6913C31.3617 13.7015 31.3391 13.7112 31.3163 13.7203L22.6577 17.1712C22.3531 17.2966 22.0124 17.3023 21.7038 17.187L12.9371 14.0213C12.8602 13.9936 12.7979 13.9526 12.7128 14.0099C12.6898 14.025 12.6712 14.0456 12.6585 14.07C12.6459 14.0943 12.6397 14.1215 12.6405 14.1489L12.6499 14.7238C12.6499 14.8816 12.6993 15.0355 12.791 15.1639C12.8828 15.2924 13.0123 15.3889 13.1616 15.4402L21.9285 18.6059C22.1066 18.6742 22.3042 18.6711 22.4801 18.5973L31.1385 15.1464C31.2862 15.0902 31.4126 14.9893 31.5001 14.8577C31.5876 14.7262 31.6317 14.5706 31.6264 14.4127L31.617 13.8383C31.6167 13.8109 31.6095 13.7841 31.5961 13.7602C31.5827 13.7363 31.5635 13.7161 31.5404 13.7015C31.5172 13.6869 31.4907 13.6784 31.4634 13.6766C31.4361 13.6749 31.4087 13.68 31.3839 13.6915V13.6913ZM12.6179 12.7704L12.5522 8.75707C12.5517 8.73073 12.5575 8.70465 12.5692 8.68103C12.5809 8.65742 12.598 8.63696 12.6193 8.6214C12.6406 8.60584 12.6652 8.59562 12.6913 8.59162C12.7173 8.58763 12.7439 8.58996 12.7689 8.59843L21.6412 11.5735C21.9324 11.6751 22.2502 11.6698 22.5377 11.5585V11.5579L31.307 8.29378C31.3316 8.28451 31.3582 8.2813 31.3843 8.28445C31.4105 8.28759 31.4355 8.29698 31.4572 8.31184C31.479 8.32669 31.4969 8.34656 31.5093 8.36978C31.5218 8.39299 31.5284 8.41886 31.5288 8.4452L31.5944 12.4585C31.5997 12.6163 31.5555 12.7719 31.468 12.9033C31.3805 13.0348 31.2542 13.1357 31.1066 13.1919L22.448 16.6424C22.2722 16.7163 22.0746 16.7193 21.8965 16.651L13.1293 13.4855C12.9802 13.4343 12.8507 13.3379 12.7589 13.2096C12.6672 13.0814 12.6178 12.9277 12.6176 12.77L12.6179 12.7704ZM14.8504 32.5456C14.1846 32.2081 13.4484 32.0332 12.7019 32.0353H8.39923C7.12597 32.0393 5.906 32.5469 5.00566 33.4472C4.10533 34.3475 3.59776 35.5675 3.59377 36.8408V37.4098C3.5934 37.4324 3.59786 37.4549 3.60686 37.4756C3.61585 37.4964 3.62918 37.515 3.64594 37.5301C4.77325 38.5824 6.12608 39.3632 7.60116 39.8129C9.07625 40.2626 10.6346 40.3693 12.1572 40.1249C12.2558 40.109 12.3961 39.9691 12.1916 39.7924C12.152 39.7584 12.1203 39.7164 12.0986 39.669C12.0769 39.6217 12.0657 39.5702 12.0657 39.5181V38.4809C12.0671 37.3851 12.3213 36.3044 12.8088 35.323C13.2962 34.3416 14.0036 33.486 14.8759 32.8228C14.898 32.8059 14.9155 32.7836 14.9267 32.7581C14.9378 32.7326 14.9423 32.7047 14.9398 32.6769C14.9372 32.6492 14.9276 32.6225 14.9119 32.5995C14.8963 32.5765 14.875 32.5578 14.8501 32.5453L14.8504 32.5456ZM13.4754 39.9761L12.8443 39.4175L12.7899 39.2954V38.4816C12.7951 36.7869 13.4706 35.1632 14.6689 33.965C15.8672 32.7667 17.4909 32.0912 19.1855 32.086H24.8116C28.2969 32.086 31.207 34.928 31.207 38.4816V39.292C31.2074 39.3152 31.2026 39.3382 31.1931 39.3594C31.1836 39.3806 31.1696 39.3995 31.152 39.4147L30.5409 39.9594L30.5415 39.9601L29.573 40.6957C27.2694 42.2834 24.5252 43.1071 21.728 43.0504C18.9309 42.9937 16.2223 42.0595 13.9849 40.3797L13.4754 39.9764V39.9761ZM10.5503 22.0449C11.3613 22.0449 12.1541 22.2854 12.8285 22.7359C13.5028 23.1865 14.0284 23.8269 14.3388 24.5761C14.6491 25.3254 14.7303 26.1499 14.5721 26.9453C14.4139 27.7408 14.0234 28.4714 13.4499 29.0449C12.8765 29.6183 12.1458 30.0089 11.3504 30.1671C10.555 30.3253 9.73051 30.2441 8.98124 29.9338C8.23196 29.6234 7.59154 29.0979 7.14097 28.4235C6.6904 27.7492 6.4499 26.9564 6.4499 26.1454C6.44993 25.0579 6.88194 24.015 7.65091 23.246C8.41988 22.477 9.46283 22.0449 10.5503 22.0449ZM31.8388 40.1243C33.2668 40.3535 34.7273 40.2741 36.1221 39.8915C37.5168 39.5089 38.8135 38.8319 39.9246 37.9061L39.924 37.9053L40.3475 37.5293C40.3652 37.5141 40.3793 37.4952 40.3888 37.4739C40.3984 37.4527 40.4031 37.4296 40.4028 37.4063V36.8404C40.3996 35.5669 39.8923 34.3465 38.9918 33.446C38.0913 32.5454 36.8708 32.0381 35.5973 32.035H31.2946C30.5476 32.0339 29.8108 32.2088 29.144 32.5456C29.1192 32.5582 29.0979 32.5768 29.0823 32.5999C29.0666 32.6229 29.057 32.6495 29.0544 32.6772C29.0519 32.7049 29.0564 32.7329 29.0675 32.7584C29.0787 32.7839 29.0961 32.8062 29.1182 32.8231C29.9906 33.4863 30.6982 34.3418 31.186 35.3231C31.6737 36.3044 31.9284 37.385 31.9303 38.4809V39.5175H31.9293C31.9293 39.8122 31.6451 39.8118 31.7078 40.0112C31.7166 40.0405 31.7335 40.0668 31.7567 40.0868C31.7799 40.1069 31.8083 40.1199 31.8387 40.1243L31.8388 40.1243ZM33.4458 22.0448C34.2568 22.0447 35.0496 22.2851 35.724 22.7357C36.3984 23.1862 36.924 23.8265 37.2345 24.5758C37.5449 25.3251 37.6262 26.1495 37.468 26.945C37.3098 27.7404 36.9193 28.4711 36.3459 29.0446C35.7725 29.6181 35.0418 30.0087 34.2464 30.167C33.451 30.3253 32.6265 30.2441 31.8772 29.9338C31.1279 29.6234 30.4874 29.0979 30.0368 28.4235C29.5863 27.7492 29.3457 26.9564 29.3457 26.1454C29.3457 25.058 29.7777 24.0151 30.5466 23.2461C31.3155 22.4771 32.3584 22.045 33.4458 22.0449V22.0448Z" fill="#09B96D"/>
</svg>
