<svg width="61" height="60" viewBox="0 0 61 60" fill="none" xmlns="http://www.w3.org/2000/svg">
<path fill-rule="evenodd" clip-rule="evenodd" d="M14.2288 13.8602C14.2288 12.2805 15.5094 11 17.089 11H41.4322H41.6229C41.6632 11 41.7033 11.0008 41.7432 11.0025C52.1306 11.1686 60.5 19.6408 60.5 30.0678C60.5 40.4948 52.1305 48.9671 41.743 49.1331C41.7032 49.1348 41.6631 49.1356 41.6229 49.1356H41.4444L41.4322 49.1356L41.42 49.1356H17.089C15.5094 49.1356 14.2288 47.855 14.2288 46.2754C14.2288 44.6958 15.5094 43.4153 17.089 43.4153H22.8767C24.7148 43.4153 25.7612 41.0878 24.8515 39.4905C24.4572 38.7981 23.7362 38.3305 22.9394 38.3305H15.5636C13.9839 38.3305 12.7034 37.05 12.7034 35.4703C12.7034 33.8907 13.9839 32.6102 15.5636 32.6102H19.9826C21.3328 32.6102 22.3644 31.418 22.3644 30.0678C22.3644 28.7176 21.3328 27.5254 19.9826 27.5254H11.6229C10.0432 27.5254 8.76271 26.2449 8.76271 24.6653C8.76271 23.0856 10.0433 21.8051 11.6229 21.8051H22.9394C23.7362 21.8051 24.4572 21.3375 24.8515 20.6451C25.7612 19.0478 24.7148 16.7203 22.8766 16.7203H17.089C15.5094 16.7203 14.2288 15.4398 14.2288 13.8602ZM6.22034 24.6653C6.22034 26.2449 4.9398 27.5254 3.36017 27.5254C1.78054 27.5254 0.5 26.2449 0.5 24.6653C0.5 23.0856 1.78054 21.8051 3.36017 21.8051C4.9398 21.8051 6.22034 23.0856 6.22034 24.6653ZM8.82627 49.1356C10.4059 49.1356 11.6864 47.855 11.6864 46.2754C11.6864 44.6958 10.4059 43.4153 8.82627 43.4153C7.24664 43.4153 5.9661 44.6958 5.9661 46.2754C5.9661 47.855 7.24664 49.1356 8.82627 49.1356Z" fill="url(#paint0_linear_3930_4361)"/>
<ellipse cx="41.432" cy="30.0677" rx="15.2542" ry="15.2542" fill="white"/>
<g clip-path="url(#clip0_3930_4361)">
<path d="M41.4962 40.5094C47.2979 40.5094 52.0011 35.8062 52.0011 30.0045C52.0011 24.2027 47.2979 19.4995 41.4962 19.4995C35.6944 19.4995 30.9912 24.2027 30.9912 30.0045C30.9912 35.8062 35.6944 40.5094 41.4962 40.5094Z" fill="#292F33"/>
<path d="M49.8997 30.0041C49.8997 34.6454 46.1371 38.408 41.4958 38.408C36.8544 38.408 33.0918 34.6454 33.0918 30.0041C33.0918 25.3627 36.8544 21.6001 41.4958 21.6001C46.1371 21.6001 49.8997 25.3627 49.8997 30.0041Z" fill="#FFC02D"/>
<path d="M42.389 25.4716L40.8201 23.9027C40.9376 23.7661 40.9972 23.5891 40.9864 23.4093C40.9755 23.2294 40.895 23.0609 40.762 22.9394C40.6289 22.818 40.4538 22.7531 40.2737 22.7586C40.0936 22.7641 39.9228 22.8396 39.7974 22.969C39.6306 23.1358 39.5675 23.3663 39.6052 23.5814C39.4597 23.5555 39.3096 23.5767 39.177 23.642C39.0443 23.7073 38.936 23.8132 38.8677 23.9443C38.7993 24.0754 38.7746 24.2249 38.7972 24.371C38.8197 24.5171 38.8882 24.6522 38.9928 24.7567C39.2493 25.0131 39.654 25.0243 39.9266 24.7962L41.4955 26.3646L42.389 25.4716Z" fill="#FFE8B6"/>
<path d="M47.471 31.4477C47.9178 31.001 49.0474 29.0835 47.484 27.5201C46.3946 26.4307 45.5165 26.4931 43.8833 26.0884C43.2134 25.8647 42.3397 25.0595 42.1166 24.8364C41.8929 25.0595 41.9714 25.8764 41.9714 25.8764C41.9714 25.8764 40.9981 25.9555 40.7744 26.1786C40.9975 26.4017 42.0356 27.3836 42.2173 27.8439C42.7055 29.3937 42.6499 30.1822 43.7399 31.271C45.5264 33.0575 47.0249 31.8945 47.471 31.4477Z" fill="#C1694F"/>
<path d="M36.1399 29.0773C36.1399 30.2718 38.0549 31.2401 36.861 31.2401C36.577 31.2401 36.2958 31.1842 36.0334 31.0755C35.771 30.9668 35.5325 30.8075 35.3317 30.6067C35.1309 30.4058 34.9716 30.1674 34.8629 29.905C34.7542 29.6426 34.6982 29.3614 34.6982 29.0773C34.6982 28.7933 34.7542 28.5121 34.8629 28.2497C34.9716 27.9873 35.1309 27.7488 35.3317 27.548C35.5325 27.3472 35.771 27.1879 36.0334 27.0792C36.2958 26.9705 36.577 26.9146 36.861 26.9146C38.0555 26.9146 36.1399 27.8829 36.1399 29.0773ZM41.5067 34.9416C42.4948 35.418 44.0625 34.2204 43.5854 35.2091C43.3561 35.6839 42.9477 36.0482 42.4498 36.2218C41.952 36.3954 41.4055 36.3641 40.9308 36.1348C40.456 35.9055 40.0917 35.497 39.9181 34.9992C39.7445 34.5013 39.7758 33.9549 40.0051 33.4801C40.4821 32.4914 40.5186 34.4645 41.5067 34.9416Z" fill="#77B255"/>
<path d="M39.6421 30.6221C40.3247 30.6221 40.878 30.0688 40.878 29.3863C40.878 28.7037 40.3247 28.1504 39.6421 28.1504C38.9596 28.1504 38.4062 28.7037 38.4062 29.3863C38.4062 30.0688 38.9596 30.6221 39.6421 30.6221Z" fill="#F4900C"/>
<path d="M45.2039 34.3296C45.5452 34.3296 45.8218 34.053 45.8218 33.7117C45.8218 33.3704 45.5452 33.0938 45.2039 33.0938C44.8626 33.0938 44.5859 33.3704 44.5859 33.7117C44.5859 34.053 44.8626 34.3296 45.2039 34.3296Z" fill="#F4900C"/>
<path d="M37.1707 33.712C37.512 33.712 37.7886 33.4353 37.7886 33.094C37.7886 32.7527 37.512 32.4761 37.1707 32.4761C36.8294 32.4761 36.5527 32.7527 36.5527 33.094C36.5527 33.4353 36.8294 33.712 37.1707 33.712Z" fill="#F4900C"/>
</g>
<defs>
<linearGradient id="paint0_linear_3930_4361" x1="60.5" y1="49.1356" x2="-3.56491" y2="19.9109" gradientUnits="userSpaceOnUse">
<stop stop-color="#1BAC4B"/>
<stop offset="1" stop-color="#46D375"/>
</linearGradient>
<clipPath id="clip0_3930_4361">
<rect width="22.2458" height="22.2458" fill="white" transform="translate(30.373 18.8813)"/>
</clipPath>
</defs>
</svg>
